<svg xmlns="http://www.w3.org/2000/svg" viewBox="0 0 24 24" fill="#2496ED"><path d="M13.983 11.078h2.119a.186.186 0 0 0 .186-.186V9.006a.186.186 0 0 0-.186-.186h-2.119a.185.185 0 0 0-.185.185v1.888c0 .102.083.185.185.185m-2.954-5.43h2.118a.186.186 0 0 0 .186-.186V3.574a.186.186 0 0 0-.186-.185h-2.118a.185.185 0 0 0-.185.185v1.888c0 .102.082.185.185.186m0 2.716h2.118a.187.187 0 0 0 .186-.186V6.29a.186.186 0 0 0-.186-.185h-2.118a.185.185 0 0 0-.185.185v1.887c0 .102.082.186.185.186m-2.93 0h2.12a.186.186 0 0 0 .184-.186V6.29a.185.185 0 0 0-.185-.185H8.1a.185.185 0 0 0-.185.185v1.887c0 .102.083.186.185.186m-2.964 0h2.119a.186.186 0 0 0 .185-.186V6.29a.185.185 0 0 0-.185-.185H5.136a.186.186 0 0 0-.186.185v1.887c0 .102.086.186.186.186m5.893 2.715h2.118a.186.186 0 0 0 .186-.185V9.006a.186.186 0 0 0-.186-.186h-2.118a.185.185 0 0 0-.185.185v1.888c0 .102.082.185.185.185m-2.93 0h2.12a.185.185 0 0 0 .184-.185V9.006a.185.185 0 0 0-.184-.186h-2.12a.185.185 0 0 0-.184.185v1.888c0 .102.083.185.185.185m-2.964 0h2.119a.185.185 0 0 0 .185-.185V9.006a.185.185 0 0 0-.185-.186h-2.12a.186.186 0 0 0-.186.186v1.887c0 .102.086.185.186.185m-2.92 0h2.12a.185.185 0 0 0 .184-.185V9.006a.185.185 0 0 0-.184-.186h-2.12a.185.185 0 0 0-.184.185v1.888c0 .102.082.185.185.185M23.763 9.89c-.065-.051-.672-.51-1.954-.51-.338.001-.676.03-1.01.087-.248-1.7-1.653-2.53-1.716-2.566l-.344-.203-.225.327c-.284.438-.49.922-.612 1.43-.23.97-.09 1.882.403 2.661a5.54 5.54 0 0 1-1.605-1.037l-.2-.18-.12.25c-.13.27-.2.57-.2.87 0 .67.34 1.29.92 1.66-.34.02-.68.05-1.02.1-.31 0-.62.02-.93.05l-.36.04-.1.33c-.13.44-.2.9-.2 1.36 0 2.45 1.89 4.74 5.37 6.37 2.06.9 4.06 1.35 5.94 1.35 1.47 0 2.84-.24 4.07-.72 2.19-.86 3.66-2.38 4.36-4.31.57-1.55.45-3.01-.34-4.33a3.17 3.17 0 0 0-.98-.87"/></svg>
