<svg xmlns="http://www.w3.org/2000/svg" viewBox="0 0 24 24" fill="#F05032"><path d="M23.546 10.93 13.067.452a1.55 1.55 0 0 0-2.188 0L8.708 2.627l2.76 2.76a1.838 1.838 0 0 1 2.327 2.34l2.658 2.66a1.838 1.838 0 0 1 1.96 3.04 1.837 1.837 0 0 1-2.6 0 1.846 1.846 0 0 1-.404-1.996L12.86 8.955v6.525c.176.086.342.203.488.348a1.84 1.84 0 0 1 0 2.601 1.835 1.835 0 0 1-2.593 0 1.835 1.835 0 0 1 0-2.601c.152-.152.328-.274.514-.367V8.834a1.834 1.834 0 0 1-.996-2.403L7.636 3.7.45 10.881a1.55 1.55 0 0 0 0 2.188l10.48 10.477a1.545 1.545 0 0 0 2.186 0l10.43-10.43a1.544 1.544 0 0 0 0-2.186"/></svg>
