<svg xmlns="http://www.w3.org/2000/svg" viewBox="0 0 24 24" fill="#E10098"><path d="M12.002 0a2.138 2.138 0 1 0 0 4.277 2.138 2.138 0 0 0 0-4.277M2.67 6.856a2.138 2.138 0 1 0 0 4.276 2.138 2.138 0 0 0 0-4.276m18.662 0a2.138 2.138 0 1 0 .001 4.276 2.138 2.138 0 0 0-.001-4.276M6.515 17.572a2.138 2.138 0 1 0 .001 4.276 2.138 2.138 0 0 0-.001-4.276m11.024 0a2.138 2.138 0 1 0 0 4.277 2.138 2.138 0 0 0 0-4.277M2.67 13.714c1.177 0 2.138.96 2.138 2.138 0 1.177-.96 2.138-2.138 2.138-1.177 0-2.138-.96-2.138-2.138 0-1.177.96-2.138 2.138-2.138m18.662 0c1.177 0 2.138.96 2.138 2.138 0 1.177-.96 2.138-2.138 2.138-1.177 0-2.138-.96-2.138-2.138 0-1.177.96-2.138 2.138-2.138M12.002 10.429c1.177 0 2.138.96 2.138 2.138 0 1.177-.96 2.138-2.138 2.138-1.177 0-2.138-.96-2.138-2.138 0-1.177.96-2.138 2.138-2.138"/></svg>
