<svg xmlns="http://www.w3.org/2000/svg" viewBox="0 0 24 24" fill="#F7DF1E"><rect width="24" height="24" rx="2"/><path fill="#000" d="M15.5 17.5c.5.8 1 1.4 2.1 1.4 1 0 1.6-.5 1.6-1.2 0-.8-.6-1.1-1.6-1.6l-.6-.2c-1.6-.8-2.6-1.7-2.6-3.8 0-1.9 1.4-3.4 3.7-3.4 1.6 0 2.8.6 3.6 2l-2 1.3c-.5-.9-1-1.2-1.7-1.2-.8 0-1.3.5-1.3 1.2 0 .8.5 1.1 1.6 1.6l.6.3c1.9.9 3 1.8 3 3.9 0 2.3-1.8 3.5-4.3 3.5-2.4 0-4-1.2-4.7-2.8l2.1-1.3zM6.5 17.7L8.4 16c.8 1.4 1.7 2 2.8 2 .9 0 1.4-.4 1.4-1.9V7.5h2.5v8.6c0 2.5-1.5 3.7-3.6 3.7-1.9 0-3.1-.9-4-2.1z"/></svg>
