<svg xmlns="http://www.w3.org/2000/svg" viewBox="0 0 24 24" fill="#47A248"><path d="M17.193 9.555c-1.264-5.58-4.252-7.414-4.573-8.115-.28-.394-.53-.954-.735-1.44-.036.495-.055.685-.523 1.184-.723.566-4.438 3.682-4.74 10.02-.282 5.912 4.27 9.435 4.888 9.884l.07.05A73.49 73.49 0 0112 20.785a73.49 73.49 0 01-2.19-2.225l.07-.05c.62-.45 5.17-3.972 4.888-9.884-.302-6.337-4.017-9.453-4.74-10.02-.468-.499-.487-.689-.523-1.184-.205.486-.455 1.046-.735 1.44-.321.701-3.309 2.535-4.573 8.115-.902 3.878-.382 7.544 1.505 10.893A11.96 11.96 0 0012 22.75a11.96 11.96 0 007.688-2.302c1.887-3.349 2.407-7.015 1.505-10.893z"/></svg>
