<svg xmlns="http://www.w3.org/2000/svg" viewBox="0 0 24 24" fill="#000"><path d="M11.6 11.44c0-.92.75-1.67 1.67-1.67.92 0 1.67.75 1.67 1.67 0 .92-.75 1.67-1.67 1.67-.92 0-1.67-.75-1.67-1.67zm8.94-1.01c-.45-.32-.93-.6-1.44-.84.24-.96.36-1.96.36-2.98 0-.41-.03-.81-.08-1.21-1.5-.45-3.09-.68-4.73-.68-1.64 0-3.23.23-4.73.68-.05.4-.08.8-.08 1.21 0 1.02.12 2.02.36 2.98-.51.24-.99.52-1.44.84C4.7 12.08 2 15.14 2 18.75h20c0-3.61-2.7-6.67-6.3-8.32zM12 2C6.48 2 2 6.48 2 12h1.5C3.5 7.31 7.31 3.5 12 3.5S20.5 7.31 20.5 12H22C22 6.48 17.52 2 12 2z"/></svg>
