<svg xmlns="http://www.w3.org/2000/svg" viewBox="0 0 24 24" fill="#61DAFB"><path d="M12 10.11c1.03 0 1.87.84 1.87 1.89 0 1-.84 1.85-1.87 1.85S10.13 13 10.13 12c0-1.05.84-1.89 1.87-1.89M7.37 20c.63.38 2.01-.2 3.6-1.7-.52-.59-1.03-1.23-1.51-1.9a22.7 22.7 0 0 1-2.4-.36c-.51 2.14-.32 3.61.31 3.96m.71-5.74l-.29-.51a16.68 16.68 0 0 1-.75-1.47 16.43 16.43 0 0 1-2.08-.08 12.5 12.5 0 0 0-2.61 4.06c1.87 1.24 3.67 1.75 4.73 1.01M12 5.5c-.67.74-1.24 1.55-1.72 2.4 1.68.26 3.41.31 5.14.05.48-.85 1.05-1.66 1.72-2.4-.58-.03-1.17-.05-1.78-.05-.61 0-1.2.02-1.78.05M8.03 6.91l-.29.51a16.68 16.68 0 0 1-.75 1.47 16.43 16.43 0 0 1-2.08.08 12.5 12.5 0 0 0 2.61-4.06c.63.38 2.01.2 3.6 1.7-.52.59-1.03 1.23-1.51 1.9a22.7 22.7 0 0 1-2.58.4M12 2c-.61 0-1.2.02-1.78.05.67.74 1.24 1.55 1.72 2.4 1.73-.26 3.46-.21 5.14.05.48-.85 1.05-1.66 1.72-2.4C18.2 2.02 17.61 2 17 2h-5m7.37 3.47c-.51 2.14-.32 3.61.31 3.96.63.38 2.01-.2 3.6-1.7-.52-.59-1.03-1.23-1.51-1.9a22.7 22.7 0 0 1-2.4-.36M12 22c.61 0 1.2-.02 1.78-.05-.67-.74-1.24-1.55-1.72-2.4-1.73.26-3.46.21-5.14-.05-.48.85-1.05 1.66-1.72 2.4.58.03 1.17.05 1.78.05h5m-7.37-3.47c.51-2.14.32-3.61-.31-3.96-.63-.38-2.01.2-3.6 1.7.52.59 1.03 1.23 1.51 1.9.79.15 1.59.27 2.4.36"/></svg>
