<svg xmlns="http://www.w3.org/2000/svg" viewBox="0 0 24 24" fill="#010101"><path d="M11.998 0C5.372 0 0 4.743 0 10.6c0 3.313 1.89 6.258 4.838 8.088l-.998 2.988 3.45-1.725c.93.186 1.89.287 2.708.287 6.626 0 12-4.743 12-10.6S18.624 0 11.998 0zm5.85 13.125c-.16.45-.93.825-1.29.875-.33.045-.75.065-1.215-.075-.285-.09-.652-.21-1.125-.41-1.98-.855-3.27-2.865-3.375-3-.105-.135-.855-1.125-.855-2.145 0-1.02.54-1.515.735-1.725.195-.21.42-.255.555-.255h.405c.135 0 .315.015.48.24.165.225.555.72.57.75.015.03.03.06.015.12-.015.06-.03.09-.06.135-.03.045-.06.09-.09.135-.03.045-.06.105-.03.21.03.105.135.45.285.69.39.675.825 1.125 1.47 1.485.21.12.375.195.51.255.21.09.405.075.555-.03.165-.12.705-.825.9-1.11.195-.285.39-.24.66-.15.27.09 1.71.81 2.005.96.3.15.495.225.57.345.075.12.075.705-.075 1.155z"/></svg>
