<svg xmlns="http://www.w3.org/2000/svg" viewBox="0 0 24 24" fill="#06B6D4"><path d="M12.001 4.8c-3.2 0-5.2 1.6-6 4.8 1.2-1.6 2.6-2.2 4.2-1.8.913.228 1.565.883 2.288 1.518C13.694 10.614 14.797 12 17.001 12c3.2 0 5.2-1.6 6-4.8-1.2 1.6-2.6 2.2-4.2 1.8-.913-.228-1.565-.883-2.288-1.518C15.308 6.186 14.205 4.8 12.001 4.8zm-6 8.4c-3.2 0-5.2 1.6-6 4.8 1.2-1.6 2.6-2.2 4.2-1.8.913.228 1.565.883 2.288 1.518 1.204 1.014 2.307 2.4 4.511 2.4 3.2 0 5.2-1.6 6-4.8-1.2 1.6-2.6 2.2-4.2 1.8-.913-.228-1.565-.883-2.288-1.518-1.204-1.014-2.307-2.4-4.511-2.4z"/></svg>
