<svg xmlns="http://www.w3.org/2000/svg" viewBox="0 0 24 24" fill="#3178C6"><path d="M1.125 0C.502 0 0 .502 0 1.125v21.75C0 23.498.502 24 1.125 24h21.75c.623 0 1.125-.502 1.125-1.125V1.125C24 .502 23.498 0 22.875 0zm17.363 9.75c.612 0 1.154.037 1.627.111a6.38 6.38 0 0 1 1.306.34v2.458a3.95 3.95 0 0 0-.643-.361 5.093 5.093 0 0 0-.717-.26 5.45 5.45 0 0 0-1.084-.2v.67a4.833 4.833 0 0 1 1.036.353c.326.155.608.332.847.533.34.301.604.646.791 1.036.187.39.28.863.28 1.418 0 .557-.093 1.036-.28 1.437-.187.4-.452.744-.791 1.031-.34.288-.744.508-1.21.66a5.78 5.78 0 0 1-1.627.222c-.612 0-1.155-.037-1.628-.111a4.957 4.957 0 0 1-1.306-.34v-2.458c.21.143.427.265.643.361.216.096.466.185.717.26.301.096.612.17.917.222v-.67a4.833 4.833 0 0 1-1.036-.353 2.742 2.742 0 0 1-.847-.533 2.594 2.594 0 0 1-.791-1.036 2.816 2.816 0 0 1-.28-1.418c0-.557.093-1.036.28-1.437.187-.4.452-.744.791-1.031.34-.288.744-.508 1.21-.66.466-.152.984-.222 1.627-.222z"/></svg>
